<svg id="图层_1" data-name="图层 1" xmlns="http://www.w3.org/2000/svg" viewBox="0 0 1881 1233"><defs><style>.cls-1,.cls-21{fill:#f6ce6b;}.cls-16,.cls-2,.cls-28,.cls-3,.cls-5,.cls-9{isolation:isolate;}.cls-16,.cls-28,.cls-3,.cls-5,.cls-9{font-size:24px;fill:#040000;font-family:Futura-Bold, Futura;font-weight:700;}.cls-3,.cls-8{letter-spacing:-0.01em;}.cls-4{letter-spacing:0em;}.cls-6{letter-spacing:0.01em;}.cls-7{letter-spacing:0em;}.cls-9{letter-spacing:-0.01em;}.cls-10{letter-spacing:0em;}.cls-11{letter-spacing:-0.04em;}.cls-12{letter-spacing:0.01em;}.cls-13{letter-spacing:0.01em;}.cls-14{letter-spacing:-0.02em;}.cls-15{letter-spacing:0.01em;}.cls-16{letter-spacing:-0.01em;}.cls-17{letter-spacing:-0.03em;}.cls-18{letter-spacing:-0.04em;}.cls-19{letter-spacing:-0.03em;}.cls-20{fill:none;stroke:#f6ce6b;stroke-width:3px;}.cls-21{fill-rule:evenodd;}.cls-22{letter-spacing:0em;}.cls-23{fill:#efc048;}.cls-24{letter-spacing:0.01em;}.cls-25,.cls-28{letter-spacing:0.01em;}.cls-26{letter-spacing:-0.01em;}.cls-27{letter-spacing:0.03em;}.cls-29{letter-spacing:-0.03em;}</style></defs><title>CTA TASK 1 FLOW</title><g id="CTA-TASK-1-FLOW"><rect id="Rectangle" class="cls-1" x="545" y="312" width="225" height="150" rx="15"/><rect class="cls-1" x="282" width="225" height="150" rx="15"/><g id="Group-13"><rect class="cls-1" y="620" width="225" height="150" rx="15"/><g id="Group-8"><rect class="cls-1" y="620" width="225" height="150" rx="15"/><g id="TOPIC-SENTENCE" class="cls-2"><text class="cls-3" transform="translate(69.66 688.62)">T<tspan class="cls-4" x="12.65" y="0">OPIC </tspan></text><text class="cls-5" transform="translate(43 718.62)">SENTE<tspan class="cls-6" x="77.54" y="0">N</tspan><tspan x="99.65" y="0">CE</tspan></text></g></g></g><g id="Group-14"><rect class="cls-1" x="281" y="620" width="225" height="150" rx="15"/><g id="Group-7"><rect class="cls-1" x="281" y="620" width="225" height="150" rx="15"/><g id="SENTENCE-STRUCTURE" class="cls-2"><text class="cls-5" transform="translate(324 688.62)">SENTE<tspan class="cls-6" x="77.54" y="0">N</tspan><tspan x="99.65" y="0">CE </tspan></text><text class="cls-5" transform="translate(316.56 718.62)"><tspan class="cls-7">S</tspan><tspan x="15.62" y="0">T</tspan><tspan class="cls-8" x="28.44" y="0">R</tspan><tspan x="45.29" y="0">UCTURE</tspan></text></g></g></g><g id="Group-17"><rect class="cls-1" x="281" y="846" width="225" height="150" rx="15"/><g id="Group-9"><rect class="cls-1" x="281" y="846" width="225" height="150" rx="15"/><g id="RUN-ON-SENTENCES" class="cls-2"><text class="cls-9" transform="translate(333.22 914.62)">R<tspan class="cls-10" x="16.85" y="0">UN-ON </tspan></text><text class="cls-5" transform="translate(316.25 944.62)">SENTE<tspan class="cls-6" x="77.54" y="0">N</tspan><tspan x="99.65" y="0">CES</tspan></text></g></g></g><g id="Group-17-Copy"><rect class="cls-1" x="281" y="1073" width="225" height="150" rx="15"/><rect class="cls-1" x="281" y="1073" width="225" height="150" rx="15"/><g id="ADD-PARALLEL-CONSTRU" class="cls-2"><text class="cls-5" transform="translate(293.6 1141.62)">ADD <tspan class="cls-11" x="65.14" y="0">P</tspan><tspan x="80.4" y="0">ARALLEL </tspan></text><text class="cls-5" transform="translate(284.88 1171.62)"><tspan class="cls-12">C</tspan><tspan x="16.27" y="0">ON</tspan><tspan class="cls-13" x="60.33" y="0">S</tspan><tspan class="cls-4" x="75.96" y="0">T</tspan><tspan class="cls-8" x="88.77" y="0">R</tspan><tspan x="105.62" y="0">UCTION</tspan></text></g></g><g id="Group-15"><rect class="cls-1" x="562" y="620" width="225" height="150" rx="15"/><g id="Group-6"><rect class="cls-1" x="562" y="620" width="225" height="150" rx="15"/><g id="CONNECT-TO-TOPIC-SEN" class="cls-2"><text class="cls-5" transform="translate(585.74 673.62)"><tspan class="cls-12">C</tspan><tspan x="16.27" y="0">ONNECT </tspan><tspan class="cls-8" x="132.86" y="0">T</tspan><tspan x="145.51" y="0">O </tspan></text><text class="cls-3" transform="translate(631.66 703.62)">T<tspan class="cls-4" x="12.65" y="0">OPIC </tspan></text><text class="cls-5" transform="translate(605 733.62)">SENTE<tspan class="cls-6" x="77.54" y="0">N</tspan><tspan x="99.65" y="0">CE</tspan></text></g></g></g><rect class="cls-1" x="281" y="312" width="225" height="150" rx="15"/><rect class="cls-1" x="16" y="312" width="225" height="150" rx="15"/><g id="Group-4"><rect class="cls-1" x="545" y="312" width="225" height="150" rx="15"/><g id="WHO-IS-AUDIENCE" class="cls-2"><text class="cls-5" transform="translate(601.62 380.62)">WHO IS </text><text class="cls-5" transform="translate(586.85 410.62)"><tspan class="cls-14">A</tspan><tspan class="cls-10" x="18.74" y="0">UDIE</tspan><tspan class="cls-15" x="79.34" y="0">N</tspan><tspan x="101.45" y="0">CE</tspan></text></g></g><g id="Group-2"><rect class="cls-1" x="17" y="312" width="225" height="150" rx="15"/><g id="READ-OUT-LOUD" class="cls-2"><text class="cls-5" transform="translate(57.78 380.62)">READ OUT </text><text class="cls-16" transform="translate(86.86 410.62)">L<tspan class="cls-4" x="12.41" y="0">OUD</tspan></text></g></g><g id="Group-3"><rect class="cls-1" x="281" y="314" width="225" height="150" rx="15"/><g id="WHAT-WAS-THE-GOAL-OF" class="cls-2"><text class="cls-5" transform="translate(312.56 367.62)">WH<tspan class="cls-17" x="47.5" y="0">A</tspan><tspan x="65.95" y="0">T </tspan><tspan class="cls-18" x="86.93" y="0">W</tspan><tspan x="113.47" y="0">AS </tspan></text><text class="cls-5" transform="translate(300.79 397.62)">THE G<tspan class="cls-19" x="75.77" y="0">O</tspan><tspan x="97.27" y="0">AL OF </tspan></text><text class="cls-5" transform="translate(311.96 427.62)">THE WRITER</text></g></g><g id="Group-10"><path id="Path-2" class="cls-20" d="M487,311V463" transform="translate(-96 -155)"/><polygon id="Triangle" class="cls-21" points="379 296 403 296 391 311 379 296"/><path class="cls-20" d="M487,311v45a30,30,0,0,1-30,30H290a30,30,0,0,0-30,30v42" transform="translate(-96 -155)"/><polygon class="cls-21" points="176 291 152 291 164 309 176 291"/><path class="cls-20" d="M489,311v45a30,30,0,0,0,30,30H692a30,30,0,0,1,30,30v42" transform="translate(-96 -155)"/><polygon class="cls-21" points="614 294 638 294 626 312 614 294"/></g><g id="Group-10-Copy"><path class="cls-20" d="M487,619V771" transform="translate(-96 -155)"/><polygon class="cls-21" points="379 604 403 604 391 619 379 604"/><path class="cls-20" d="M487,619v45a30,30,0,0,1-30,30H290a30,30,0,0,0-30,30v42" transform="translate(-96 -155)"/><polygon class="cls-21" points="176 599 152 599 164 617 176 599"/><path class="cls-20" d="M489,619v45a30,30,0,0,0,30,30H692a30,30,0,0,1,30,30v42" transform="translate(-96 -155)"/><polygon class="cls-21" points="614 602 638 602 626 620 614 602"/></g><g id="Group-12"><path class="cls-20" d="M490.5,925.5V996" transform="translate(-96 -155)"/><polygon class="cls-21" points="382.5 826.5 406.5 826.5 394.5 841.5 382.5 826.5"/></g><g id="Group-12-Copy"><path class="cls-20" d="M490.5,1152.5V1223" transform="translate(-96 -155)"/><polygon class="cls-21" points="382.5 1053.5 406.5 1053.5 394.5 1068.5 382.5 1053.5"/></g><g id="Group"><rect class="cls-1" x="285" width="225" height="150" rx="15"/><g id="EXPERT" class="cls-2"><text class="cls-5" transform="translate(346.17 84.62)">EXPE<tspan class="cls-22" x="62.93" y="0">R</tspan><tspan x="79.97" y="0">T</tspan></text></g></g><rect class="cls-1" x="1639" y="320" width="225" height="150" rx="15"/><rect class="cls-1" x="1376" y="8" width="225" height="150" rx="15"/><rect class="cls-1" x="1094" y="628" width="225" height="150" rx="15"/><rect class="cls-23" x="1094" y="628" width="225" height="150" rx="15"/><g class="cls-2"><text class="cls-5" transform="translate(1135.78 696.62)">READ OUT </text><text class="cls-16" transform="translate(1164.86 726.62)">L<tspan class="cls-4" x="12.41" y="0">OUD</tspan></text></g><rect class="cls-1" x="1094" y="856" width="225" height="150" rx="15"/><rect class="cls-23" x="1094" y="856" width="225" height="150" rx="15"/><g id="REPHRASE" class="cls-2"><text class="cls-5" transform="translate(1135.35 934.62)">REPHRASE</text></g><rect class="cls-1" x="1094" y="1083" width="225" height="150" rx="15"/><rect class="cls-23" x="1094" y="1083" width="225" height="150" rx="15"/><g id="REWRITE" class="cls-2"><text class="cls-5" transform="translate(1145.95 1165.62)">REWRITE</text></g><g id="Group-17-Copy-2"><rect class="cls-1" x="1656" y="858" width="225" height="150" rx="15"/><rect class="cls-23" x="1656" y="858" width="225" height="150" rx="15"/><g class="cls-2"><text class="cls-5" transform="translate(1707.95 939.62)">REWRITE</text></g></g><rect class="cls-1" x="1656" y="628" width="225" height="150" rx="15"/><rect class="cls-23" x="1656" y="628" width="225" height="150" rx="15"/><g class="cls-2"><text class="cls-9" transform="translate(1708.22 681.62)">R<tspan class="cls-10" x="16.85" y="0">UN-ON </tspan></text><text class="cls-5" transform="translate(1691.25 711.62)">SENTE<tspan class="cls-6" x="77.54" y="0">N</tspan><tspan x="99.65" y="0">CES</tspan></text></g><rect class="cls-1" x="1375" y="320" width="225" height="150" rx="15"/><rect class="cls-1" x="1110" y="320" width="225" height="150" rx="15"/><rect class="cls-23" x="1639" y="320" width="225" height="150" rx="15"/><g class="cls-2"><text class="cls-5" transform="translate(1680.78 388.62)">READ OUT </text><text class="cls-16" transform="translate(1709.86 418.62)">L<tspan class="cls-4" x="12.41" y="0">OUD</tspan></text></g><rect class="cls-23" x="1111" y="320" width="225" height="150" rx="15"/><g id="WHAT-WAS-THE-WRITER" class="cls-2"><text class="cls-5" transform="translate(1142.56 377.62)">WH<tspan class="cls-17" x="47.5" y="0">A</tspan><tspan x="65.95" y="0">T </tspan><tspan class="cls-18" x="86.93" y="0">W</tspan><tspan x="113.47" y="0">AS </tspan></text><text class="cls-5" transform="translate(1141.96 407.62)">THE WRITER </text><text class="cls-5" transform="translate(1150.72 437.62)">THINKI<tspan class="cls-24" x="90.67" y="0">N</tspan><tspan x="112.87" y="0">G</tspan></text></g><rect class="cls-23" x="1375" y="322" width="225" height="150" rx="15"/><g id="NOTICE-THAT-IT-DOESN" class="cls-2"><text class="cls-5" transform="translate(1397.5 375.62)"><tspan class="cls-25">N</tspan><tspan class="cls-26" x="22.08" y="0">O</tspan><tspan x="44.09" y="0">TICE TH</tspan><tspan class="cls-17" x="136.05" y="0">A</tspan><tspan x="154.51" y="0">T </tspan></text><text class="cls-5" transform="translate(1409.66 405.62)">IT DOESN<tspan class="cls-27" x="121.58" y="0">’</tspan><tspan x="131.76" y="0">T </tspan></text><text class="cls-16" transform="translate(1399.66 435.62)">L<tspan class="cls-4" x="12.41" y="0">OOK RIGHT</tspan></text></g><path class="cls-20" d="M1581,319V471" transform="translate(-96 -155)"/><polygon class="cls-21" points="1473 304 1497 304 1485 319 1473 304"/><path class="cls-20" d="M1581,319v45a30,30,0,0,1-30,30H1384a30,30,0,0,0-30,30v42" transform="translate(-96 -155)"/><polygon class="cls-21" points="1270 299 1246 299 1258 317 1270 299"/><path class="cls-20" d="M1583,319v45a30,30,0,0,0,30,30h173a30,30,0,0,1,30,30v42" transform="translate(-96 -155)"/><polygon class="cls-21" points="1708 302 1732 302 1720 320 1708 302"/><path class="cls-20" d="M1581,627v45a30,30,0,0,1-30,30H1384a30,30,0,0,0-30,30v42" transform="translate(-96 -155)"/><polygon class="cls-21" points="1270 607 1246 607 1258 625 1270 607"/><path class="cls-20" d="M1583,627v45a30,30,0,0,0,30,30h173a30,30,0,0,1,30,30v42" transform="translate(-96 -155)"/><polygon class="cls-21" points="1708 610 1732 610 1720 628 1708 610"/><path class="cls-20" d="M1303.5,935.5V1006" transform="translate(-96 -155)"/><polygon class="cls-21" points="1195.5 836.5 1219.5 836.5 1207.5 851.5 1195.5 836.5"/><path class="cls-20" d="M1303.5,1162.5V1233" transform="translate(-96 -155)"/><polygon class="cls-21" points="1195.5 1063.5 1219.5 1063.5 1207.5 1078.5 1195.5 1063.5"/><g id="Group-12-Copy-2"><path class="cls-20" d="M1865.5,937.5V1008" transform="translate(-96 -155)"/><polygon class="cls-21" points="1757.5 838.5 1781.5 838.5 1769.5 853.5 1757.5 838.5"/></g><rect class="cls-23" x="1379" y="8" width="225" height="150" rx="15"/><g id="NOVICE" class="cls-2"><text class="cls-28" transform="translate(1435.94 92.62)">N<tspan class="cls-29" x="22.08" y="0">O</tspan><tspan class="cls-10" x="43.44" y="0">VICE</tspan></text></g></g></svg>