<svg id="图层_1" data-name="图层 1" xmlns="http://www.w3.org/2000/svg" viewBox="0 0 1675 756.77"><defs><style>.cls-1{fill:#6faedf;}.cls-12,.cls-2,.cls-3,.cls-7{isolation:isolate;}.cls-3{font-size:48px;}.cls-3,.cls-7{fill:#fff;}.cls-12,.cls-3,.cls-7{font-family:Futura-Medium, Futura;font-weight:500;}.cls-4{letter-spacing:-0.03em;}.cls-5{letter-spacing:-0.06em;}.cls-6{letter-spacing:-0.04em;}.cls-7{font-size:45px;}.cls-8{letter-spacing:0.03em;}.cls-9{letter-spacing:-0.02em;}.cls-10{letter-spacing:-0.03em;}.cls-11{letter-spacing:-0.04em;}.cls-12{font-size:35px;fill:#231815;}.cls-13{letter-spacing:-0.03em;}.cls-14{letter-spacing:-0.02em;}.cls-15{letter-spacing:0.01em;}.cls-16{letter-spacing:0.01em;}.cls-17{fill:#6ca9d9;}.cls-18{letter-spacing:-0.01em;}.cls-19{letter-spacing:-0.04em;}.cls-20{letter-spacing:0.01em;}.cls-21{fill:#bad7a3;}.cls-22{fill:#e99595;}.cls-23{fill:#e89495;}</style></defs><title>consolidation flowchart</title><g id="Artboard"><g id="skill"><rect id="Rectangle" class="cls-1" x="1020" y="100" width="187" height="136" rx="12"/><g id="Skill-2" data-name="Skill" class="cls-2"><text class="cls-3" transform="translate(1053.24 187)">SKILL</text></g></g><g id="motivation"><rect class="cls-1" x="143" y="311" width="338" height="136" rx="12"/><g id="Motivation-2" data-name="Motivation" class="cls-2"><text class="cls-3" transform="translate(161.23 398)">M<tspan class="cls-4" x="46.15" y="0">O</tspan><tspan x="87.75" y="0">TI</tspan><tspan class="cls-5" x="125.06" y="0">V</tspan><tspan class="cls-6" x="154.5" y="0">A</tspan><tspan x="188.04" y="0">TION</tspan></text></g></g><g id="self-evaluation"><rect class="cls-1" x="1253" y="311" width="422" height="136" rx="12"/><g id="Self-Evaluation-2" data-name="Self-Evaluation" class="cls-2"><text class="cls-7" transform="translate(1268.97 398)">SEL<tspan class="cls-8" x="71.63" y="0">F</tspan><tspan x="95.8" y="0">-E</tspan><tspan class="cls-5" x="131.04" y="0">V</tspan><tspan x="158.64" y="0">A</tspan><tspan class="cls-9" x="191.98" y="0">L</tspan><tspan class="cls-10" x="210.89" y="0">U</tspan><tspan class="cls-6" x="242.69" y="0">A</tspan><tspan x="274.13" y="0">TION</tspan></text></g></g><g id="d-k-effect"><rect class="cls-1" x="21" y="610" width="314" height="136" rx="12"/><g id="D-K-Effect-2" data-name="D-K-Effect" class="cls-2"><text class="cls-3" transform="translate(54.78 697)">D-K EFFECT</text></g></g><g id="practice"><rect class="cls-1" x="608" y="311" width="273" height="136" rx="12"/><g id="Practice-2" data-name="Practice" class="cls-2"><text class="cls-3" transform="translate(636.66 398)">PR<tspan class="cls-11" x="54.82" y="0">A</tspan><tspan x="88.69" y="0">CTICE</tspan></text></g><g id="Practice-3" data-name="Practice" class="cls-2"><text class="cls-12" transform="translate(1222.08 652.2)"><tspan class="cls-13">P</tspan><tspan x="17.89" y="0">ositi</tspan><tspan class="cls-14" x="80.13" y="0">v</tspan><tspan x="97.12" y="0">e I</tspan><tspan class="cls-15" x="137.61" y="0">m</tspan><tspan x="165.72" y="0">pact</tspan></text></g><g id="Practice-4" data-name="Practice" class="cls-2"><text class="cls-12" transform="translate(1222.08 746.67)"><tspan class="cls-16">N</tspan><tspan x="29.94" y="0">egati</tspan><tspan class="cls-14" x="109.53" y="0">v</tspan><tspan x="126.52" y="0">e I</tspan><tspan class="cls-15" x="167" y="0">m</tspan><tspan x="195.11" y="0">pact</tspan></text></g></g><g id="importance"><rect class="cls-17" width="356" height="120" rx="12"/><g id="Importance-2" data-name="Importance" class="cls-2"><text class="cls-3" transform="translate(21 79.52)">IMPO<tspan class="cls-18" x="129.12" y="0">R</tspan><tspan class="cls-19" x="157.59" y="0">T</tspan><tspan x="178.78" y="0">A</tspan><tspan class="cls-20" x="214.34" y="0">N</tspan><tspan x="255.19" y="0">CE</tspan></text></g></g><path id="Line" class="cls-21" d="M1077.49,443.13,936,537.56l-5.55-8.32,141.5-94.42-12.22-18.3,59.91-7.52-29.93,52.43Z" transform="translate(-122 -241)"/><path id="Line-Copy-5" class="cls-21" d="M393,495.13,292.93,390.85l7.22-6.92L400.22,488.2,416.09,473,434,530.63l-56.87-20.27Z" transform="translate(-122 -241)"/><path id="Line-Copy-3" class="cls-21" d="M664,625H620V615h44V593l54,27-54,27Z" transform="translate(-122 -241)"/><path id="Line-Copy-3-2" data-name="Line-Copy-3" class="cls-21" d="M1277.41,887.79h-31.33v-7.12h31.33V865l38.46,19.23-38.46,19.23Z" transform="translate(-122 -241)"/><path id="Line-Copy-3-3" data-name="Line-Copy-3" class="cls-22" d="M1277.41,978.23h-31.33v-7.12h31.33V955.45l38.46,19.22-38.46,19.23Z" transform="translate(-122 -241)"/><path id="Line-Copy" class="cls-21" d="M1489.07,505.26l-145-94.81,5.47-8.37,145,94.81,12-18.42L1537,530.63l-60-7Z" transform="translate(-122 -241)"/><path id="Line-Copy-2" class="cls-23" d="M394.92,751.6,299.21,828,293,820.21l95.71-76.42L375,726.6,434,714l-25.35,54.79Z" transform="translate(-122 -241)"/><path id="Line-Copy-4" class="cls-23" d="M569.23,301.45l555.87,56.08-1,10L568.23,311.4,566,333.28,515,301l56.44-21.44Z" transform="translate(-122 -241)"/></g></svg>