<svg id="图层_1" data-name="图层 1" xmlns="http://www.w3.org/2000/svg" viewBox="0 0 2254 1223"><defs><style>.cls-1{fill:#cbe3f6;}.cls-2{fill:#71a3d1;}.cls-10,.cls-12,.cls-24,.cls-3,.cls-4{isolation:isolate;}.cls-10,.cls-12,.cls-24,.cls-4{font-size:24px;font-family:Futura-Bold, Futura;font-weight:700;}.cls-24,.cls-4{fill:#fff;}.cls-5{letter-spacing:-0.03em;}.cls-6{letter-spacing:0.01em;}.cls-7{letter-spacing:0em;}.cls-8{letter-spacing:0em;}.cls-9{fill:#afd3f0;}.cls-10,.cls-12{fill:#040000;}.cls-10,.cls-14{letter-spacing:-0.01em;}.cls-11{letter-spacing:0em;}.cls-13{letter-spacing:0.01em;}.cls-15{letter-spacing:-0.03em;}.cls-16{letter-spacing:0em;}.cls-17{letter-spacing:-0.02em;}.cls-18{letter-spacing:0.03em;}.cls-19{letter-spacing:0.01em;}.cls-20{letter-spacing:0.01em;}.cls-21{letter-spacing:-0.01em;}.cls-22{letter-spacing:0.01em;}.cls-23{letter-spacing:0.05em;}.cls-24{letter-spacing:0.01em;}.cls-25{letter-spacing:-0.02em;}.cls-26{letter-spacing:-0.03em;}.cls-27{fill:none;stroke:#a4cced;stroke-width:3px;}.cls-28{fill:#3278be;fill-rule:evenodd;}</style></defs><title>CTA TASK 2 FLOW</title><g id="CTA-TASK-2-FLOW"><rect id="Rectangle" class="cls-1" x="675" y="312" width="225" height="150" rx="15"/><g id="Group-20"><rect id="Rectangle-Copy" class="cls-1" x="1839" y="307" width="225" height="150" rx="15"/><rect id="Rectangle-Copy-10" class="cls-2" x="1839" y="307" width="225" height="150" rx="15"/><g id="WHAT-AM-I-DOING" class="cls-3"><text class="cls-4" transform="translate(1872.32 375.62)">WH<tspan class="cls-5" x="47.5" y="0">A</tspan><tspan x="65.95" y="0">T AM I </tspan></text><text class="cls-4" transform="translate(1900.28 405.62)">DOI<tspan class="cls-6" x="49.56" y="0">N</tspan><tspan class="cls-7" x="71.76" y="0">G</tspan></text></g></g><rect class="cls-1" x="412" width="225" height="150" rx="15"/><g id="Group-19"><rect id="Rectangle-Copy-2" class="cls-1" x="1374" y="307" width="225" height="150" rx="15"/><rect id="Rectangle-Copy-11" class="cls-2" x="1374" y="307" width="225" height="150" rx="15"/><g id="INTEREST-Copy" class="cls-3"><text class="cls-4" transform="translate(1423.62 386.62)">INTERE<tspan class="cls-8" x="87.55" y="0">S</tspan><tspan x="103.17" y="0">T</tspan></text></g></g><g id="Group-13"><rect class="cls-1" y="620" width="225" height="150" rx="15"/><g id="Group-8"><rect class="cls-9" y="620" width="225" height="150" rx="15"/><g id="TOPIC-SENTENCE" class="cls-3"><text class="cls-10" transform="translate(69.66 688.62)">T<tspan class="cls-11" x="12.65" y="0">OPIC </tspan></text><text class="cls-12" transform="translate(43 718.62)">SENTE<tspan class="cls-13" x="77.54" y="0">N</tspan><tspan x="99.65" y="0">CE</tspan></text></g></g></g><g id="Group-14"><rect class="cls-1" x="281" y="620" width="225" height="150" rx="15"/><g id="Group-7"><rect class="cls-9" x="281" y="620" width="225" height="150" rx="15"/><g id="SENTENCE-STRUCTURE" class="cls-3"><text class="cls-12" transform="translate(324 688.62)">SENTE<tspan class="cls-13" x="77.54" y="0">N</tspan><tspan x="99.65" y="0">CE </tspan></text><text class="cls-12" transform="translate(316.56 718.62)"><tspan class="cls-8">S</tspan><tspan x="15.62" y="0">T</tspan><tspan class="cls-14" x="28.44" y="0">R</tspan><tspan x="45.29" y="0">UCTURE</tspan></text></g></g></g><g id="Group-21"><rect id="Rectangle-Copy-4" class="cls-1" x="1659" y="614" width="225" height="150" rx="15"/><rect id="Rectangle-Copy-13" class="cls-2" x="1659" y="614" width="225" height="150" rx="15"/><g id="WHERE-TO-START" class="cls-3"><text class="cls-4" transform="translate(1699.03 682.62)">WHERE <tspan class="cls-14" x="100.03" y="0">T</tspan><tspan class="cls-11" x="112.68" y="0">O </tspan></text><text class="cls-4" transform="translate(1727.85 712.62)"><tspan class="cls-8">S</tspan><tspan class="cls-15" x="15.62" y="0">T</tspan><tspan class="cls-7" x="27.6" y="0">A</tspan><tspan class="cls-16" x="46.85" y="0">R</tspan><tspan x="63.89" y="0">T</tspan></text></g></g><g id="Group-17"><rect class="cls-1" x="281" y="846" width="225" height="150" rx="15"/><g id="Group-9"><rect class="cls-9" x="281" y="846" width="225" height="150" rx="15"/><g id="WORD-CHOICE" class="cls-3"><text class="cls-12" transform="translate(345.76 914.62)"><tspan class="cls-17">W</tspan><tspan x="27.12" y="0">ORD </tspan></text><text class="cls-12" transform="translate(340.36 944.62)"><tspan class="cls-18">C</tspan><tspan x="16.78" y="0">HOICE</tspan></text></g></g></g><g id="Group-17-Copy"><rect class="cls-1" x="281" y="1073" width="225" height="150" rx="15"/><rect class="cls-9" x="281" y="1073" width="225" height="150" rx="15"/><g id="GRAMMAR" class="cls-3"><text class="cls-12" transform="translate(316.89 1152.62)">GRAMMAR</text></g></g><g id="Group-23"><rect id="Rectangle-Copy-5" class="cls-1" x="2029" y="888" width="225" height="150" rx="15"/><rect id="Rectangle-Copy-14" class="cls-2" x="2029" y="888" width="225" height="150" rx="15"/><g class="cls-3"><text class="cls-4" transform="translate(2064.89 969.62)">GRAMMAR</text></g></g><g id="Group-15"><rect class="cls-1" x="562" y="620" width="225" height="150" rx="15"/><g id="Group-6"><rect class="cls-9" x="562" y="620" width="225" height="150" rx="15"/><g id="CONCLUSION" class="cls-3"><text class="cls-12" transform="translate(582 705)"><tspan class="cls-19">C</tspan><tspan x="16.27" y="0">O</tspan><tspan class="cls-20" x="38.47" y="0">N</tspan><tspan x="60.58" y="0">C</tspan><tspan class="cls-21" x="76.58" y="0">L</tspan><tspan class="cls-7" x="89.01" y="0">USION</tspan></text></g></g></g><g id="Group-22"><rect id="Rectangle-Copy-6" class="cls-1" x="2029" y="614" width="225" height="150" rx="15"/><rect id="Rectangle-Copy-15" class="cls-2" x="2029" y="614" width="225" height="150" rx="15"/><g id="REWRITING" class="cls-3"><text class="cls-4" transform="translate(2062.55 693.62)">REWRITI<tspan class="cls-22" x="105.02" y="0">N</tspan><tspan class="cls-7" x="127.22" y="0">G</tspan></text></g></g><g id="Group-16"><rect class="cls-1" x="843" y="620" width="225" height="150" rx="15"/><g id="Group-5"><rect class="cls-9" x="843" y="620" width="225" height="150" rx="15"/><g id="STYLE" class="cls-3"><text class="cls-12" transform="translate(914.49 699.62)"><tspan class="cls-8">S</tspan><tspan class="cls-23" x="15.62" y="0">T</tspan><tspan x="29.62" y="0">YLE</tspan></text></g></g></g><rect class="cls-1" x="411" y="312" width="225" height="150" rx="15"/><rect class="cls-1" x="146" y="312" width="225" height="150" rx="15"/><g id="Group-18"><rect id="Rectangle-Copy-9" class="cls-1" x="1599" width="225" height="150" rx="15"/><rect id="Rectangle-Copy-18" class="cls-2" x="1599" width="225" height="150" rx="15"/><g id="NOVICE" class="cls-3"><text class="cls-24" transform="translate(1655.94 84.62)">N<tspan class="cls-15" x="22.08" y="0">O</tspan><tspan class="cls-7" x="43.44" y="0">VICE</tspan></text></g></g><g id="Group-4"><rect class="cls-9" x="675" y="312" width="225" height="150" rx="15"/><g id="AUDIENCE" class="cls-3"><text class="cls-12" transform="translate(716.85 391.62)"><tspan class="cls-25">A</tspan><tspan class="cls-7" x="18.74" y="0">UDIE</tspan><tspan class="cls-20" x="79.34" y="0">N</tspan><tspan x="101.45" y="0">CE</tspan></text></g></g><g id="Group-2"><rect class="cls-9" x="147" y="312" width="225" height="150" rx="15"/><g id="INTEREST" class="cls-3"><text class="cls-12" transform="translate(196.62 391.62)">INTERE<tspan class="cls-8" x="87.55" y="0">S</tspan><tspan x="103.17" y="0">T</tspan></text></g></g><g id="Group-3"><rect class="cls-9" x="411" y="312" width="225" height="150" rx="15"/><g id="GOAL" class="cls-3"><text class="cls-12" transform="translate(480.88 391.62)">G<tspan class="cls-26" x="21.12" y="0">O</tspan><tspan x="42.62" y="0">AL</tspan></text></g></g><g id="Group-10"><path id="Path-2" class="cls-27" d="M640,263V415" transform="translate(-119 -107)"/><polygon id="Triangle" class="cls-28" points="509 296 533 296 521 311 509 296"/><path class="cls-27" d="M640,263v45a30,30,0,0,1-30,30H443a30,30,0,0,0-30,30v42" transform="translate(-119 -107)"/><polygon class="cls-28" points="306 291 282 291 294 309 306 291"/><path class="cls-27" d="M642,263v45a30,30,0,0,0,30,30H845a30,30,0,0,1,30,30v42" transform="translate(-119 -107)"/><polygon class="cls-28" points="744 294 768 294 756 312 744 294"/></g><g id="Group-12"><path class="cls-27" d="M513.5,877.5V948" transform="translate(-119 -107)"/><polygon class="cls-28" points="382.5 826.5 406.5 826.5 394.5 841.5 382.5 826.5"/></g><g id="Group-12-Copy"><path class="cls-27" d="M513.5,1104.5V1175" transform="translate(-119 -107)"/><polygon class="cls-28" points="382.5 1053.5 406.5 1053.5 394.5 1068.5 382.5 1053.5"/></g><g id="Group-26"><path id="Path-2-Copy-2" class="cls-27" d="M2261,871V986" transform="translate(-119 -107)"/><polygon id="Triangle-Copy-2" class="cls-28" points="2130 867 2154 867 2142 882 2130 867"/></g><g id="Group-24"><path id="Path-2-Copy-3" class="cls-27" d="M1832,258v45a30,30,0,0,1-30,30H1635a30,30,0,0,0-30,30v42" transform="translate(-119 -107)"/><polygon id="Triangle-Copy-3" class="cls-28" points="1498 286 1474 286 1486 304 1498 286"/><path id="Path-2-Copy-5" class="cls-27" d="M1834,258v45a30,30,0,0,0,30,30h173a30,30,0,0,1,30,30v42" transform="translate(-119 -107)"/><polygon id="Triangle-Copy-5" class="cls-28" points="1936 289 1960 289 1948 307 1936 289"/></g><g id="Group-11"><path class="cls-27" d="M642.5,571.5v45a30,30,0,0,1-30,30h-345a30,30,0,0,0-30,30v42" transform="translate(-119 -107)"/><polygon class="cls-28" points="130.5 599.5 106.5 599.5 118.5 617.5 130.5 599.5"/><path class="cls-27" d="M644.5,571.5v45a30,30,0,0,0,30,30h370a30,30,0,0,1,30,30v42" transform="translate(-119 -107)"/><polygon class="cls-28" points="943.5 602.5 967.5 602.5 955.5 620.5 943.5 602.5"/><path class="cls-27" d="M643.5,571.5v45a30,30,0,0,1-30,30h-74a30,30,0,0,0-30,30v42" transform="translate(-119 -107)"/><polygon class="cls-28" points="402.5 599.5 378.5 599.5 390.5 617.5 402.5 599.5"/><path class="cls-27" d="M643.5,571.5v45a30,30,0,0,0,30,30h91a30,30,0,0,1,30,30v42" transform="translate(-119 -107)"/><polygon class="cls-28" points="663.5 602.5 687.5 602.5 675.5 620.5 663.5 602.5"/></g><g id="Group-25"><path id="Path-2-Copy-7" class="cls-27" d="M2074,565v45a30,30,0,0,1-30,30H1923a30,30,0,0,0-30,30v42" transform="translate(-119 -107)"/><polygon id="Triangle-Copy-7" class="cls-28" points="1786 593 1762 593 1774 611 1786 593"/><path id="Path-2-Copy-8" class="cls-27" d="M2074,565v45a30,30,0,0,0,30,30h125a30,30,0,0,1,30,30v42" transform="translate(-119 -107)"/><polygon id="Triangle-Copy-8" class="cls-28" points="2128 596 2152 596 2140 614 2128 596"/></g><g id="Group"><rect class="cls-9" x="415" width="225" height="150" rx="15"/><g id="EXPERT" class="cls-3"><text class="cls-12" transform="translate(476.17 84.62)">EXPE<tspan class="cls-16" x="62.93" y="0">R</tspan><tspan x="79.97" y="0">T</tspan></text></g></g></g></svg>