<svg id="Layer_1" data-name="Layer 1" xmlns="http://www.w3.org/2000/svg" viewBox="0 0 1791 1243"><defs><style>.cls-1{fill:#4ba9e0;}.cls-1,.cls-2,.cls-3{stroke:#78afdf;}.cls-2{fill:#62b4e5;}.cls-3{fill:#89cff3;}.cls-11,.cls-17,.cls-4,.cls-5{isolation:isolate;}.cls-5{font-size:72px;font-family:Futura-Bold, Futura;font-weight:700;}.cls-11,.cls-17,.cls-30,.cls-5{fill:#fff;}.cls-6{letter-spacing:-0.03em;}.cls-7{letter-spacing:-0.02em;}.cls-8{letter-spacing:0em;}.cls-9{letter-spacing:0em;}.cls-10{letter-spacing:0em;}.cls-11,.cls-30{font-size:48px;}.cls-11,.cls-17,.cls-30{font-family:Futura-Medium, Futura;font-weight:500;}.cls-12{letter-spacing:-0.04em;}.cls-13{letter-spacing:0.02em;}.cls-14{letter-spacing:-0.03em;}.cls-15{letter-spacing:-0.01em;}.cls-16{letter-spacing:0.01em;}.cls-17{font-size:36px;}.cls-18{letter-spacing:-0.02em;}.cls-19{letter-spacing:0.01em;}.cls-20{letter-spacing:0.03em;}.cls-21{letter-spacing:-0.04em;}.cls-22{letter-spacing:0.04em;}.cls-23{letter-spacing:-0.02em;}.cls-24{letter-spacing:-0.04em;}.cls-25{letter-spacing:0em;}.cls-26{letter-spacing:0.02em;}.cls-27{letter-spacing:-0.01em;}.cls-28{letter-spacing:0.03em;}.cls-29{letter-spacing:-0.02em;}.cls-31{letter-spacing:-0.02em;}.cls-32,.cls-33{fill:#5597d2;}.cls-33{stroke:#5597d2;stroke-linecap:square;stroke-width:5px;fill-rule:evenodd;}</style></defs><title>flower&amp;amp;hayes</title><g id="Artboard"><rect id="Rectangle" class="cls-1" x="482.5" y="0.5" width="1308" height="587"/><rect id="Rectangle-Copy-3" class="cls-1" x="482.5" y="635.5" width="1308" height="607"/><rect id="Rectangle-Copy-4" class="cls-1" x="0.5" y="394.5" width="419" height="848"/><rect id="Rectangle-Copy" class="cls-2" x="576.5" y="175.5" width="508" height="375"/><rect id="Rectangle-Copy-5" class="cls-2" x="576.5" y="673.5" width="508" height="375"/><rect id="Rectangle-Copy-9" class="cls-2" x="1130.5" y="673.5" width="291" height="375"/><rect id="Rectangle-Copy-13" class="cls-2" x="583.5" y="1089.5" width="1127" height="91"/><rect id="Rectangle-Copy-10" class="cls-2" x="1433.5" y="673.5" width="291" height="375"/><rect id="Rectangle-Copy-6" class="cls-3" x="606.5" y="772.5" width="97" height="237"/><rect id="Rectangle-Copy-7" class="cls-3" x="738.5" y="772.5" width="321" height="97"/><rect id="Rectangle-Copy-11" class="cls-3" x="1448.5" y="812.5" width="261" height="97"/><rect id="Rectangle-Copy-12" class="cls-3" x="1449.5" y="926.5" width="261" height="97"/><rect id="Rectangle-Copy-8" class="cls-3" x="738.5" y="912.5" width="321" height="97"/><rect id="Rectangle-Copy-2" class="cls-2" x="1189.5" y="175.5" width="508" height="375"/><g id="Task-Environment" class="cls-4"><text class="cls-5" transform="translate(813.02 128)"><tspan class="cls-6">T</tspan><tspan x="35.93" y="0">ask E</tspan><tspan class="cls-7" x="238.82" y="0">n</tspan><tspan class="cls-8" x="285.33" y="0">vi</tspan><tspan class="cls-9" x="354.24" y="0">r</tspan><tspan class="cls-10" x="388.08" y="0">onment</tspan></text></g><g id="Writing-Assignment" class="cls-4"><text class="cls-11" transform="translate(620.57 253)"><tspan class="cls-12">W</tspan><tspan class="cls-13" x="48.8" y="0">r</tspan><tspan x="67.48" y="0">iting Assignment</tspan></text></g><g id="Planning" class="cls-4"><text class="cls-11" transform="translate(737.85 742)">Planning</text></g><g id="Translating" class="cls-4"><text class="cls-11" transform="translate(1159.21 883)"><tspan class="cls-14">T</tspan><tspan class="cls-15" x="21.52" y="0">r</tspan><tspan x="39.14" y="0">anslating</tspan></text></g><g id="Monitor" class="cls-4"><text class="cls-11" transform="translate(1033.73 1155)">Moni<tspan class="cls-16" x="113.27" y="0">t</tspan><tspan x="126.73" y="0">or</tspan></text></g><g id="Generating" class="cls-4"><text class="cls-17" transform="translate(641 799.1) rotate(90)">Gene<tspan class="cls-15" x="89.89" y="0">r</tspan><tspan x="103.11" y="0">ating</tspan></text></g><g id="Organization" class="cls-4"><text class="cls-17" transform="translate(791.09 831)">Organization</text></g><g id="Reading" class="cls-4"><text class="cls-17" transform="translate(1512.28 878)"><tspan class="cls-18">R</tspan><tspan x="21.09" y="0">eading</tspan></text></g><g id="Editing" class="cls-4"><text class="cls-17" transform="translate(1525 984)">Editing</text></g><g id="Goal-Setting" class="cls-4"><text class="cls-17" transform="translate(798.11 975)">Goal S<tspan class="cls-19" x="114.61" y="0">e</tspan><tspan x="134.84" y="0">tting</tspan></text></g><g class="cls-4"><text class="cls-11" transform="translate(49 482)"><tspan class="cls-12">W</tspan><tspan class="cls-13" x="48.8" y="0">r</tspan><tspan x="67.48" y="0">i</tspan><tspan class="cls-19" x="79.43" y="0">t</tspan><tspan x="92.98" y="0">e</tspan><tspan class="cls-20" x="119.53" y="0">r</tspan><tspan x="138.82" y="0">’s Long </tspan></text><text class="cls-11" transform="translate(49 544)"><tspan class="cls-21">T</tspan><tspan x="21.19" y="0">e</tspan><tspan class="cls-13" x="47.74" y="0">r</tspan><tspan x="66.42" y="0">m Memo</tspan><tspan class="cls-22" x="258.73" y="0">r</tspan><tspan x="278.79" y="0">y</tspan></text></g><g id="Knowledge-of-Topics" class="cls-4"><text class="cls-11" transform="translate(49 626)">Kn<tspan class="cls-23" x="58.13" y="0">o</tspan><tspan class="cls-19" x="86.06" y="0">w</tspan><tspan x="123.63" y="0">ledge of </tspan></text><text class="cls-11" transform="translate(49 688)"><tspan class="cls-24">T</tspan><tspan x="21" y="0">opics</tspan></text></g><g id="Knowledge-of-Audienc" class="cls-4"><text class="cls-11" transform="translate(49 773)">Kn<tspan class="cls-23" x="58.13" y="0">o</tspan><tspan class="cls-19" x="86.06" y="0">w</tspan><tspan x="123.63" y="0">ledge of </tspan></text><text class="cls-11" transform="translate(49 835)"><tspan class="cls-25">A</tspan><tspan x="35.51" y="0">udience</tspan></text></g><g id="Stored-Writing-Plans" class="cls-4"><text class="cls-11" transform="translate(49 920)"><tspan class="cls-26">S</tspan><tspan class="cls-16" x="28.8" y="0">t</tspan><tspan x="42.26" y="0">o</tspan><tspan class="cls-15" x="71.11" y="0">r</tspan><tspan x="88.73" y="0">ed </tspan><tspan class="cls-12" x="158.88" y="0">W</tspan><tspan class="cls-13" x="207.68" y="0">r</tspan><tspan x="226.36" y="0">iting </tspan></text><text class="cls-11" transform="translate(49 982)">Plans</text></g><g id="Sources-based-on-lit" class="cls-4"><text class="cls-11" transform="translate(49 1067)">Sou<tspan class="cls-27" x="82.99" y="0">r</tspan><tspan x="100.52" y="0">ces based </tspan></text><text class="cls-11" transform="translate(49 1129)">on li<tspan class="cls-19" x="93.89" y="0">t</tspan><tspan x="107.44" y="0">e</tspan><tspan class="cls-15" x="133.99" y="0">r</tspan><tspan x="151.62" y="0">atu</tspan><tspan class="cls-15" x="219.68" y="0">r</tspan><tspan x="237.3" y="0">e </tspan></text><text class="cls-11" transform="translate(49 1191)">sea<tspan class="cls-27" x="74.81" y="0">r</tspan><tspan class="cls-28" x="92.34" y="0">c</tspan><tspan x="116.46" y="0">h</tspan></text></g><g id="Text-Produced-So-Far" class="cls-4"><text class="cls-11" transform="translate(1216.36 382)"><tspan class="cls-21">T</tspan><tspan class="cls-23" x="21.19" y="0">e</tspan><tspan x="46.83" y="0">xt P</tspan><tspan class="cls-27" x="127.48" y="0">r</tspan><tspan x="145.01" y="0">oduced So </tspan><tspan class="cls-15" x="393.47" y="0">F</tspan><tspan x="417.54" y="0">ar</tspan></text></g><g id="Topic" class="cls-4"><text class="cls-11" transform="translate(774.27 382)"><tspan class="cls-24">T</tspan><tspan x="21" y="0">opic</tspan></text></g><g id="Audience" class="cls-4"><text class="cls-11" transform="translate(729.15 468)"><tspan class="cls-25">A</tspan><tspan x="35.51" y="0">udience</tspan></text></g><g class="cls-4"><text class="cls-11" transform="translate(1478.36 723)"><tspan class="cls-18">R</tspan><tspan class="cls-29" x="28.13" y="0">e</tspan><tspan x="53.86" y="0">vising/</tspan></text><text class="cls-30" transform="translate(1679.64 723)"> </text><text class="cls-11" transform="translate(1469.04 785)"><tspan class="cls-18">R</tspan><tspan class="cls-29" x="28.13" y="0">e</tspan><tspan x="53.86" y="0">vi</tspan><tspan class="cls-31" x="89.93" y="0">e</tspan><tspan x="115.76" y="0">wing</tspan></text></g><path id="Line" class="cls-32" d="M894,823.5v-96h5v96h12l-14.5,29-14.5-29Z" transform="translate(-65 -179)"/><path id="Line-Copy-7" class="cls-33" d="M960,1218.5l.5,59" transform="translate(-65 -179)"/><path id="Line-Copy-8" class="cls-33" d="M1341,1218.5l.5,59" transform="translate(-65 -179)"/><path id="Line-Copy-9" class="cls-33" d="M1644,1218.5l.5,59" transform="translate(-65 -179)"/><path id="Line-Copy-3" class="cls-32" d="M642.5,1059.5h-160v-5h160v-12l29,14.5-29,14.5Z" transform="translate(-65 -179)"/><path id="Line-Copy-4" class="cls-32" d="M1166.5,1051.5h-20v-5h20v-12l29,14.5-29,14.5Z" transform="translate(-65 -179)"/><path id="Line-Copy-5" class="cls-32" d="M783,1002.5H766.5v-5H783v-12l29,14.5-29,14.5Z" transform="translate(-65 -179)"/><path id="Line-Copy-6" class="cls-32" d="M783,1142.5H766.5v-5H783v-12l29,14.5-29,14.5Z" transform="translate(-65 -179)"/><path id="Line-Copy-2" class="cls-32" d="M1643,823.5v-96h5v96h12l-14.5,29-14.5-29Z" transform="translate(-65 -179)"/><path id="Line-Copy" class="cls-32" d="M1332,823.5v-96h5v96h12l-14.5,29-14.5-29Z" transform="translate(-65 -179)"/></g></svg>