<svg id="图层_1" data-name="图层 1" xmlns="http://www.w3.org/2000/svg" xmlns:xlink="http://www.w3.org/1999/xlink" viewBox="0 0 3198.26 3452.33"><defs><style>.cls-1{fill:none;stroke:#d8d8d8;stroke-linecap:round;stroke-linejoin:round;stroke-width:8px;stroke-dasharray:31;}.cls-2,.cls-48{fill:#1a65b1;}.cls-19,.cls-3,.cls-31,.cls-4,.cls-7{isolation:isolate;}.cls-19,.cls-31,.cls-4,.cls-7{font-size:60px;fill:#323333;font-family:Futura-Bold, Futura;font-weight:700;}.cls-5{letter-spacing:-0.04em;}.cls-6{letter-spacing:-0.03em;}.cls-7{letter-spacing:-0.01em;}.cls-8{letter-spacing:0em;}.cls-9{letter-spacing:0.03em;}.cls-10{letter-spacing:-0.03em;}.cls-11{letter-spacing:0.01em;}.cls-12{letter-spacing:0em;}.cls-13{letter-spacing:-0.02em;}.cls-14{letter-spacing:0em;}.cls-15{letter-spacing:0.01em;}.cls-16{letter-spacing:0.01em;}.cls-17,.cls-19{letter-spacing:-0.03em;}.cls-18{letter-spacing:0.01em;}.cls-20{letter-spacing:0em;}.cls-21{letter-spacing:0.02em;}.cls-22{letter-spacing:0.01em;}.cls-23{letter-spacing:-0.01em;}.cls-24{letter-spacing:0.02em;}.cls-25{letter-spacing:0em;}.cls-26{letter-spacing:0em;}.cls-27{letter-spacing:0.03em;}.cls-28{letter-spacing:0em;}.cls-29{letter-spacing:0.01em;}.cls-30{letter-spacing:-0.02em;}.cls-31,.cls-33{letter-spacing:0.01em;}.cls-32{letter-spacing:0.01em;}.cls-34{letter-spacing:-0.03em;}.cls-35{letter-spacing:-0.06em;}.cls-36{letter-spacing:-0.03em;}.cls-37{filter:url(#filter-2);}.cls-38{fill:#040000;}.cls-39,.cls-51{fill:#a5cbec;}.cls-39,.cls-42,.cls-44,.cls-48{stroke:#fff;stroke-width:25px;}.cls-40{filter:url(#filter-4);}.cls-41{filter:url(#filter-6);}.cls-42,.cls-50{fill:#edf5fc;}.cls-43{filter:url(#filter-8);}.cls-44,.cls-52{fill:#3278be;}.cls-45{filter:url(#filter-10);}.cls-46{filter:url(#filter-12);}.cls-47{filter:url(#filter-14);}.cls-49{filter:url(#filter-16);}</style><filter id="filter-2" x="-162.04" y="-138.37" width="176.1" height="176.1" name="filter-2"><feMorphology result="shadowSpreadOuter1" operator="dilate" radius="12.5" in="SourceAlpha"/><feOffset result="shadowOffsetOuter1" dx="4" dy="7" in="shadowSpreadOuter1"/><feGaussianBlur result="shadowBlurOuter1" stdDeviation="8.5" in="shadowOffsetOuter1"/><feComposite result="shadowBlurOuter1" operator="out" in="shadowBlurOuter1" in2="SourceAlpha"/><feColorMatrix values="0 0 0 0 0.85 0 0 0 0 0.85 0 0 0 0 0.85 0 0 0 1 0" in="shadowBlurOuter1"/></filter><filter id="filter-4" x="-162.04" y="-138.37" width="176.1" height="176.1" name="filter-4"><feMorphology result="shadowSpreadOuter1" operator="dilate" radius="12.5" in="SourceAlpha"/><feOffset result="shadowOffsetOuter1" dx="4" dy="7" in="shadowSpreadOuter1"/><feGaussianBlur result="shadowBlurOuter1" stdDeviation="8.5" in="shadowOffsetOuter1"/><feComposite result="shadowBlurOuter1" operator="out" in="shadowBlurOuter1" in2="SourceAlpha"/><feColorMatrix values="0 0 0 0 0.85 0 0 0 0 0.85 0 0 0 0 0.85 0 0 0 1 0" in="shadowBlurOuter1"/></filter><filter id="filter-6" x="-162.04" y="-138.37" width="176.1" height="176.1" name="filter-6"><feMorphology result="shadowSpreadOuter1" operator="dilate" radius="12.5" in="SourceAlpha"/><feOffset result="shadowOffsetOuter1" dx="4" dy="7" in="shadowSpreadOuter1"/><feGaussianBlur result="shadowBlurOuter1" stdDeviation="8.5" in="shadowOffsetOuter1"/><feComposite result="shadowBlurOuter1" operator="out" in="shadowBlurOuter1" in2="SourceAlpha"/><feColorMatrix values="0 0 0 0 0.85 0 0 0 0 0.85 0 0 0 0 0.85 0 0 0 1 0" in="shadowBlurOuter1"/></filter><filter id="filter-8" x="-162.04" y="-138.37" width="176.1" height="176.1" name="filter-8"><feMorphology result="shadowSpreadOuter1" operator="dilate" radius="12.5" in="SourceAlpha"/><feOffset result="shadowOffsetOuter1" dx="4" dy="7" in="shadowSpreadOuter1"/><feGaussianBlur result="shadowBlurOuter1" stdDeviation="8.5" in="shadowOffsetOuter1"/><feComposite result="shadowBlurOuter1" operator="out" in="shadowBlurOuter1" in2="SourceAlpha"/><feColorMatrix values="0 0 0 0 0.85 0 0 0 0 0.85 0 0 0 0 0.85 0 0 0 1 0" in="shadowBlurOuter1"/></filter><filter id="filter-10" x="-162.04" y="-138.37" width="176.1" height="176.1" name="filter-10"><feMorphology result="shadowSpreadOuter1" operator="dilate" radius="12.5" in="SourceAlpha"/><feOffset result="shadowOffsetOuter1" dx="4" dy="7" in="shadowSpreadOuter1"/><feGaussianBlur result="shadowBlurOuter1" stdDeviation="8.5" in="shadowOffsetOuter1"/><feComposite result="shadowBlurOuter1" operator="out" in="shadowBlurOuter1" in2="SourceAlpha"/><feColorMatrix values="0 0 0 0 0.85 0 0 0 0 0.85 0 0 0 0 0.85 0 0 0 1 0" in="shadowBlurOuter1"/></filter><filter id="filter-12" x="-162.04" y="-138.37" width="176.1" height="176.1" name="filter-12"><feMorphology result="shadowSpreadOuter1" operator="dilate" radius="12.5" in="SourceAlpha"/><feOffset result="shadowOffsetOuter1" dx="4" dy="7" in="shadowSpreadOuter1"/><feGaussianBlur result="shadowBlurOuter1" stdDeviation="8.5" in="shadowOffsetOuter1"/><feComposite result="shadowBlurOuter1" operator="out" in="shadowBlurOuter1" in2="SourceAlpha"/><feColorMatrix values="0 0 0 0 0.85 0 0 0 0 0.85 0 0 0 0 0.85 0 0 0 1 0" in="shadowBlurOuter1"/></filter><filter id="filter-14" x="-162.04" y="-138.37" width="176.1" height="176.1" name="filter-14"><feMorphology result="shadowSpreadOuter1" operator="dilate" radius="12.5" in="SourceAlpha"/><feOffset result="shadowOffsetOuter1" dx="4" dy="7" in="shadowSpreadOuter1"/><feGaussianBlur result="shadowBlurOuter1" stdDeviation="8.5" in="shadowOffsetOuter1"/><feComposite result="shadowBlurOuter1" operator="out" in="shadowBlurOuter1" in2="SourceAlpha"/><feColorMatrix values="0 0 0 0 0.85 0 0 0 0 0.85 0 0 0 0 0.85 0 0 0 1 0" in="shadowBlurOuter1"/></filter><filter id="filter-16" x="-162.04" y="-138.37" width="176.1" height="176.1" name="filter-16"><feMorphology result="shadowSpreadOuter1" operator="dilate" radius="12.5" in="SourceAlpha"/><feOffset result="shadowOffsetOuter1" dx="4" dy="7" in="shadowSpreadOuter1"/><feGaussianBlur result="shadowBlurOuter1" stdDeviation="8.5" in="shadowOffsetOuter1"/><feComposite result="shadowBlurOuter1" operator="out" in="shadowBlurOuter1" in2="SourceAlpha"/><feColorMatrix values="0 0 0 0 0.85 0 0 0 0 0.85 0 0 0 0 0.85 0 0 0 1 0" in="shadowBlurOuter1"/></filter></defs><title>Idea matrix</title><g id="Idea-matrix"><path id="Line-7" class="cls-1" d="M815.5,547.39V3147.57" transform="translate(-127.64 -106.67)"/><path id="Line-7-Copy-4" class="cls-1" d="M166.43,2497.5H2765.5" transform="translate(-127.64 -106.67)"/><path id="Line-7-Copy-5" class="cls-1" d="M166.43,1847.5H2765.5" transform="translate(-127.64 -106.67)"/><path id="Line-7-Copy-6" class="cls-1" d="M166.43,1197.5H2765.5" transform="translate(-127.64 -106.67)"/><path id="Line-7-Copy-7" class="cls-1" d="M166.43,547.5H2765.5" transform="translate(-127.64 -106.67)"/><path id="Line-7-Copy" class="cls-1" d="M1465.5,547.39V3147.57" transform="translate(-127.64 -106.67)"/><path id="Line-7-Copy-2" class="cls-1" d="M2115.5,547.39V3147.57" transform="translate(-127.64 -106.67)"/><path id="Line-7-Copy-3" class="cls-1" d="M2765.5,547.39V3147.57" transform="translate(-127.64 -106.67)"/><path id="Line-2" class="cls-2" d="M3175.57,3140.5l-36.71-20.65a7,7,0,1,1,6.87-12.2l60,33.75a7,7,0,0,1,0,12.2l-60,33.75a7,7,0,1,1-6.87-12.2l36.71-20.65H166.5a7,7,0,0,1,0-14Z" transform="translate(-127.64 -106.67)"/><path id="Line-2-Copy" class="cls-2" d="M161.39,140.34,140.74,177a7,7,0,0,1-12.2-6.85l33.75-59.92a7,7,0,0,1,12.2,0l33.75,59.92A7,7,0,0,1,196,177l-20.65-36.66V3145.4a7,7,0,0,1-14,0Z" transform="translate(-127.64 -106.67)"/><g id="IMPACTFUL" class="cls-3"><text class="cls-4" transform="translate(150.36 70.33)">IM<tspan class="cls-5" x="83.34" y="0">P</tspan><tspan class="cls-6" x="121.5" y="0">A</tspan><tspan x="167.94" y="0">CTFUL</tspan></text></g><g id="Pocket-Writer" class="cls-3"><text class="cls-7" transform="translate(1859.36 2337.33)">P<tspan class="cls-8" x="39.78" y="0">o</tspan><tspan class="cls-9" x="81.78" y="0">c</tspan><tspan class="cls-10" x="112.68" y="0">k</tspan><tspan class="cls-11" x="152.7" y="0">e</tspan><tspan class="cls-12" x="191.94" y="0">t </tspan></text><text class="cls-4" transform="translate(1859.36 2415.33)"><tspan class="cls-13">W</tspan><tspan class="cls-14" x="67.5" y="0">r</tspan><tspan x="95.46" y="0">i</tspan><tspan class="cls-15" x="113.76" y="0">t</tspan><tspan x="136.74" y="0">er</tspan></text></g><g id="One-Aspect" class="cls-3"><text class="cls-4" transform="translate(1747.36 1341.33)">One </text><text class="cls-4" transform="translate(1747.36 1419.33)">Aspect</text></g><g id="Domain-Context" class="cls-3"><text class="cls-4" transform="translate(1021.36 1511.33)">Domain </text><text class="cls-4" transform="translate(1021.36 1589.33)">Con<tspan class="cls-16" x="121.86" y="0">t</tspan><tspan class="cls-17" x="144.84" y="0">e</tspan><tspan x="182.04" y="0">xt</tspan></text></g><g id="Email-Master" class="cls-3"><text class="cls-4" transform="translate(928.36 425.33)">Email </text><text class="cls-4" transform="translate(928.36 503.33)"><tspan class="cls-17">M</tspan><tspan class="cls-12" x="60.48" y="0">a</tspan><tspan class="cls-18" x="102.54" y="0">s</tspan><tspan class="cls-16" x="133.92" y="0">t</tspan><tspan x="156.9" y="0">er</tspan></text></g><g id="Skills-Matrix" class="cls-3"><text class="cls-4" transform="translate(2381.36 960.33)">Skills </text><text class="cls-19" transform="translate(2381.36 1038.33)">M<tspan class="cls-12" x="60.48" y="0">at</tspan><tspan class="cls-14" x="124.92" y="0">r</tspan><tspan class="cls-12" x="152.88" y="0">ix</tspan></text></g><g id="Progress-Report" class="cls-3"><text class="cls-4" transform="translate(2747.36 1362.33)">P<tspan class="cls-20" x="40.68" y="0">r</tspan><tspan class="cls-8" x="68.88" y="0">o</tspan><tspan class="cls-21" x="110.88" y="0">g</tspan><tspan class="cls-22" x="153.78" y="0">r</tspan><tspan x="182.1" y="0">ess </tspan></text><text class="cls-4" transform="translate(2747.36 1440.33)"><tspan class="cls-23">R</tspan><tspan x="41.88" y="0">epo</tspan><tspan class="cls-24" x="164.76" y="0">r</tspan><tspan class="cls-8" x="193.86" y="0">t</tspan></text></g><g id="First-Draft" class="cls-3"><text class="cls-4" transform="translate(2316.36 1914.33)"><tspan class="cls-25">F</tspan><tspan x="32.88" y="0">i</tspan><tspan class="cls-26" x="51.18" y="0">r</tspan><tspan class="cls-18" x="78.96" y="0">s</tspan><tspan x="110.34" y="0">t </tspan></text><text class="cls-4" transform="translate(2316.36 1992.33)">D<tspan class="cls-22" x="47.16" y="0">r</tspan><tspan class="cls-8" x="75.48" y="0">a</tspan><tspan class="cls-27" x="117.54" y="0">f</tspan><tspan class="cls-8" x="142.62" y="0">t</tspan></text></g><g id="Adaptive-Articulatio" class="cls-3"><text class="cls-4" transform="translate(668.36 960.33)"><tspan class="cls-28">A</tspan><tspan class="cls-8" x="47.94" y="0">da</tspan><tspan class="cls-11" x="132.06" y="0">p</tspan><tspan class="cls-18" x="174.54" y="0">t</tspan><tspan class="cls-29" x="197.76" y="0">i</tspan><tspan class="cls-30" x="216.65" y="0">v</tspan><tspan x="254.34" y="0">e </tspan></text><text class="cls-31" transform="translate(668.36 1038.33)">A<tspan class="cls-24" x="48.78" y="0">r</tspan><tspan class="cls-32" x="77.88" y="0">t</tspan><tspan class="cls-8" x="101.1" y="0">icula</tspan><tspan class="cls-18" x="249.29" y="0">t</tspan><tspan class="cls-8" x="272.51" y="0">ion</tspan></text></g><g id="FEASIBLE" class="cls-3"><text class="cls-4" transform="translate(2915.36 3189.33)">FEASIBLE</text></g><g id="RADICAL" class="cls-3"><text class="cls-4" transform="translate(1905.36 3420.33)">RADI<tspan class="cls-21" x="159.06" y="0">C</tspan><tspan x="200.16" y="0">AL</tspan></text></g><g id="CONSERVATIVE" class="cls-3"><text class="cls-4" transform="translate(38.36 3420.33)"><tspan class="cls-33">C</tspan><tspan x="40.68" y="0">ONSE</tspan><tspan class="cls-34" x="223.8" y="0">R</tspan><tspan class="cls-35" x="264.6" y="0">V</tspan><tspan class="cls-36" x="308.46" y="0">A</tspan><tspan class="cls-8" x="354.6" y="0">TIVE</tspan></text></g><g id="Oval"><g class="cls-37"><circle id="path-1" class="cls-38" cx="1766.86" cy="2352.83" r="54.5"/></g><circle class="cls-39" cx="1766.86" cy="2352.83" r="54.5"/></g><g id="Oval-Copy"><g class="cls-40"><circle id="path-3" class="cls-38" cx="1657.86" cy="1354.83" r="54.5"/></g><circle class="cls-39" cx="1657.86" cy="1354.83" r="54.5"/></g><g id="Oval-Copy-4"><g class="cls-41"><circle id="path-5" class="cls-38" cx="931.86" cy="1526.83" r="54.5"/></g><circle class="cls-42" cx="931.86" cy="1526.83" r="54.5"/></g><g id="Oval-Copy-2"><g class="cls-43"><circle id="path-7" class="cls-38" cx="837.86" cy="440.83" r="54.5"/></g><circle class="cls-44" cx="837.86" cy="440.83" r="54.5"/></g><g id="Oval-Copy-3"><g class="cls-45"><circle id="path-9" class="cls-38" cx="2291.86" cy="972.83" r="54.5"/></g><circle class="cls-39" cx="2291.86" cy="972.83" r="54.5"/></g><g id="Oval-Copy-5"><g class="cls-46"><circle id="path-11" class="cls-38" cx="2657.86" cy="1409.83" r="54.5"/></g><circle class="cls-42" cx="2657.86" cy="1409.83" r="54.5"/></g><g id="Oval-Copy-6"><g class="cls-47"><circle id="path-13" class="cls-38" cx="2226.86" cy="1929.83" r="54.5"/></g><circle class="cls-48" cx="2226.86" cy="1929.83" r="54.5"/></g><g id="Oval-Copy-7"><g class="cls-49"><circle id="path-15" class="cls-38" cx="570.86" cy="975.83" r="54.5"/></g><circle class="cls-39" cx="570.86" cy="975.83" r="54.5"/></g><rect id="Rectangle" class="cls-50" x="560.36" y="3341.33" width="325" height="111"/><rect id="Rectangle-Copy-2" class="cls-51" x="885.36" y="3341.33" width="325" height="111"/><rect id="Rectangle-Copy-3" class="cls-52" x="1210.36" y="3341.33" width="324" height="111"/><rect id="Rectangle-Copy-4" class="cls-2" x="1534.36" y="3341.33" width="325" height="111"/></g></svg>