<svg id="图层_1" data-name="图层 1" xmlns="http://www.w3.org/2000/svg" viewBox="0 0 3496.93 3049.79"><defs><style>.cls-1{fill:#a5cbec;}.cls-2{fill:#c8e1f5;}.cls-3{fill:#edf5fc;}.cls-4{fill:#715424;}.cls-5,.cls-6{isolation:isolate;}.cls-10,.cls-6{font-size:60px;fill:#323333;font-family:Futura-Bold, Futura;font-weight:700;}.cls-7{letter-spacing:0.01em;}.cls-8{letter-spacing:0.01em;}.cls-9{letter-spacing:0.01em;}.cls-11{letter-spacing:0.01em;}.cls-12{letter-spacing:0em;}.cls-13{letter-spacing:-0.03em;}.cls-14{letter-spacing:0em;}.cls-15{letter-spacing:0em;}.cls-16{letter-spacing:-0.03em;}.cls-17{letter-spacing:0.01em;}.cls-18{letter-spacing:0.01em;}.cls-19{letter-spacing:0.01em;}.cls-20{letter-spacing:0em;}.cls-21{letter-spacing:0.01em;}.cls-22{letter-spacing:0.02em;}.cls-23{letter-spacing:0.01em;}.cls-24{letter-spacing:-0.01em;}.cls-25{fill:#040000;}.cls-26{fill:#4972b8;}.cls-26,.cls-27,.cls-28,.cls-29{stroke:#fff;stroke-width:25px;}.cls-27{fill:#538693;}.cls-28{fill:#5e4a53;}.cls-29{fill:#b36d53;}</style></defs><title>Persona matrix</title><g id="Persona-matrix"><circle id="Oval" class="cls-1" cx="1523" cy="1512.9" r="1259.5"/><circle class="cls-2" cx="1523" cy="1524.9" r="932.5"/><circle class="cls-3" cx="1523" cy="1512.9" r="532.5"/><path id="Line-2" class="cls-4" d="M3175.57,1624.5l-36.71-20.65a7,7,0,1,1,6.87-12.2l60,33.75a7,7,0,0,1,0,12.2l-60,33.75a7,7,0,1,1-6.87-12.2l36.71-20.65H166.5a7,7,0,0,1,0-14Z" transform="translate(-159.5 -106.6)"/><path id="Line-2-Copy" class="cls-4" d="M3175.57,1624.5l-36.71-20.65a7,7,0,1,1,6.87-12.2l60,33.75a7,7,0,0,1,0,12.2l-60,33.75a7,7,0,1,1-6.87-12.2l36.71-20.65H166.5a7,7,0,0,1,0-14Z" transform="translate(-159.5 -106.6)"/><g id="CONFIDENCE-IN-WRITIN" class="cls-5"><text class="cls-6" transform="translate(1649.5 70.4)"><tspan class="cls-7">C</tspan><tspan x="40.68" y="0">ONFIDE</tspan><tspan class="cls-8" x="286.38" y="0">N</tspan><tspan x="341.64" y="0">CE IN </tspan></text><text class="cls-6" transform="translate(1649.5 148.4)">WRITI<tspan class="cls-9" x="185.82" y="0">N</tspan><tspan x="241.32" y="0">G</tspan></text></g><g id="MIKE-The-hardworker" class="cls-5"><text class="cls-6" transform="translate(1793.5 1807.4)">MIKE</text><text class="cls-10" transform="translate(1958.56 1807.4)"> </text><text class="cls-6" transform="translate(1793.5 1885.4)">The ha<tspan class="cls-11" x="213" y="0">r</tspan><tspan class="cls-12" x="241.32" y="0">d </tspan><tspan class="cls-13" x="303.77" y="0">w</tspan><tspan class="cls-14" x="363.72" y="0">o</tspan><tspan class="cls-15" x="405.71" y="0">r</tspan><tspan class="cls-16" x="433.67" y="0">k</tspan><tspan x="473.69" y="0">er</tspan></text></g><g id="Angela-The-optimist" class="cls-5"><text class="cls-6" transform="translate(1074.5 561.4)"><tspan class="cls-7">A</tspan><tspan x="48.78" y="0">n</tspan><tspan class="cls-17" x="88.62" y="0">g</tspan><tspan x="131.16" y="0">ela</tspan></text><text class="cls-10" transform="translate(1304.83 561.4)"> </text><text class="cls-6" transform="translate(1074.5 639.4)">The o<tspan class="cls-18" x="173.1" y="0">p</tspan><tspan class="cls-9" x="215.58" y="0">t</tspan><tspan x="238.79" y="0">imi</tspan><tspan class="cls-19" x="334.91" y="0">s</tspan><tspan x="366.29" y="0">t</tspan></text></g><g id="Juan-The-procrastina" class="cls-5"><text class="cls-6" transform="translate(917.5 2041.4)">Juan</text><text class="cls-10" transform="translate(1071.34 2041.4)"> </text><text class="cls-6" transform="translate(917.5 2119.4)">The p<tspan class="cls-20" x="173.16" y="0">r</tspan><tspan x="201.36" y="0">oc</tspan><tspan class="cls-11" x="272.76" y="0">r</tspan><tspan x="301.07" y="0">a</tspan><tspan class="cls-9" x="343.13" y="0">st</tspan><tspan x="397.73" y="0">ina</tspan><tspan class="cls-21" x="497.93" y="0">t</tspan><tspan class="cls-14" x="520.85" y="0">or</tspan></text></g><g id="Alicia-The-enthusias" class="cls-5"><text class="cls-6" transform="translate(2223.5 1363.4)"><tspan class="cls-7">A</tspan><tspan x="48.78" y="0">licia</tspan></text><text class="cls-10" transform="translate(2398.64 1363.4)"> </text><text class="cls-6" transform="translate(2223.5 1441.4)">The en<tspan class="cls-22" x="209.76" y="0">t</tspan><tspan x="233.52" y="0">husia</tspan><tspan class="cls-19" x="404.39" y="0">s</tspan><tspan x="435.77" y="0">t</tspan></text></g><g class="cls-5"><text class="cls-6" transform="translate(2847.5 1675.4)">WRITI<tspan class="cls-9" x="185.82" y="0">N</tspan><tspan x="241.32" y="0">G SKIL</tspan><tspan class="cls-17" x="453.96" y="0">L</tspan><tspan x="486.59" y="0">S &amp; </tspan></text><text class="cls-6" transform="translate(2847.5 1753.4)">PRIOR K<tspan class="cls-23" x="270.42" y="0">N</tspan><tspan class="cls-24" x="325.62" y="0">O</tspan><tspan x="380.4" y="0">WLEDGE</tspan></text></g><circle id="path-1" class="cls-25" cx="1704" cy="1783.9" r="54.5"/><circle class="cls-26" cx="1704" cy="1783.9" r="54.5"/><g id="Oval-Copy"><circle id="path-3" class="cls-25" cx="985" cy="537.9" r="54.5"/><circle class="cls-27" cx="985" cy="537.9" r="54.5"/></g><g id="Oval-Copy-2"><circle id="path-5" class="cls-25" cx="828" cy="2017.9" r="54.5"/><circle class="cls-28" cx="828" cy="2017.9" r="54.5"/></g><g id="Oval-Copy-3"><circle id="path-7" class="cls-25" cx="2134" cy="1337.9" r="54.5"/><circle class="cls-29" cx="2134" cy="1337.9" r="54.5"/></g><path id="Line-2-Copy-2" data-name="Line-2-Copy" class="cls-4" d="M1676.91,140.33,1656.27,177a7,7,0,1,1-12.2-6.86l33.73-60a7,7,0,0,1,12.2,0l33.77,60a7,7,0,0,1-12.2,6.87l-20.66-36.71,1,3009.07a7,7,0,1,1-14,0Z" transform="translate(-159.5 -106.6)"/></g></svg>