<?xml version="1.0" encoding="UTF-8"?>
<svg width="2817px" height="2817px" viewBox="0 0 2817 2817" version="1.1" xmlns="http://www.w3.org/2000/svg" xmlns:xlink="http://www.w3.org/1999/xlink">
    <!-- Generator: Sketch 55.2 (78181) - https://sketchapp.com -->
    <title>Letter Copy 8</title>
    <desc>Created with Sketch.</desc>
    <g id="Letter-Copy-8" stroke="none" stroke-width="1" fill="none" fill-rule="evenodd">
        <g id="Group-2-Copy" transform="translate(148.000000, 119.000000)" fill-rule="nonzero">
            <g id="Group" transform="translate(0.986111, 0.000000)">
                <ellipse id="Oval-Copy-3" fill="#FFCE1F" cx="1266.70833" cy="1267.1129" rx="1266.70833" ry="1267.1129"></ellipse>
                <path d="M2214.75466,2107.49676 C2373.53438,1910.77299 2468.60833,1660.45822 2468.60833,1387.93065 C2468.60833,754.849309 1955.55837,241.635484 1322.67917,241.635484 C689.799964,241.635484 176.75,754.849309 176.75,1387.93065 C176.75,2011.8892 675.120272,2519.40997 1295.39539,2533.90727 C1285.85863,2534.11926 1276.29592,2534.22581 1266.70833,2534.22581 C567.124638,2534.22581 0,1966.92004 0,1267.1129 C0,567.30577 567.124638,0 1266.70833,0 C1966.29203,0 2533.41667,567.30577 2533.41667,1267.1129 C2533.41667,1589.54485 2413.02459,1883.84874 2214.75466,2107.49676 Z" id="Combined-Shape-Copy" fill-opacity="0.49532889" fill="#A3A3A3"></path>
                <ellipse id="Oval-Copy-4" fill="#FFCE1F" cx="1321.13611" cy="1375.16129" rx="1169.91667" ry="1170.29032"></ellipse>
                <path d="M1028.00589,2371.26551 C1052.93146,2372.41316 1078.0051,2372.99329 1103.21419,2372.99329 C1748.0685,2372.99329 2304.28861,1993.38397 2560.73348,1445.3738 C2562.72532,1471.1807 2563.73973,1497.26159 2563.73973,1523.57948 C2563.73973,2076.91536 2115.3156,2525.48271 1562.1564,2525.48271 C1365.78068,2525.48271 1182.60476,2468.94959 1028.00589,2371.26551 Z" id="Combined-Shape-Copy-2" fill-opacity="0.376693619" fill="#FFFFFF" transform="translate(1795.872811, 1985.428261) rotate(-8.000000) translate(-1795.872811, -1985.428261) "></path>
                <path d="M2533.41667,1267.1129 C2533.41667,567.30577 1966.29203,0 1266.70833,0 C567.124638,0 0,567.30577 0,1267.1129 C0,1966.92004 567.124638,2534.22581 1266.70833,2534.22581" id="Path-Copy" stroke="#755403" stroke-width="75.816" stroke-linecap="round"></path>
                <path d="M1287.77804,241.635484 C1428.48873,379.9 1544.45169,527.612903 1635.66693,684.774194 C1726.88217,841.935484 1819.72121,1072.06452 1914.18405,1375.16129 C1949.20968,1072.06452 1898.30621,828.464516 1761.47364,644.36129 C1624.64107,460.258065 1466.74254,326.016129 1287.77804,241.635484 Z" id="Path-13-Copy" fill="#D2B960" transform="translate(1606.334856, 808.398387) scale(-1, 1) translate(-1606.334856, -808.398387) "></path>
                <path d="M1266.70833,82.5096774 C567.124638,82.5096774 0,649.815448 0,1349.62258" id="Path-Copy-3" stroke="#755403" stroke-width="75.816" stroke-linecap="round" stroke-linejoin="round" transform="translate(633.354167, 716.066129) scale(-1, 1) translate(-633.354167, -716.066129) "></path>
                <path d="M2533.41667,82.5096774 C1833.83297,82.5096774 1266.70833,649.815448 1266.70833,1349.62258" id="Path-Copy-4" stroke="#755403" stroke-width="75.816" stroke-linecap="round" stroke-linejoin="round"></path>
                <ellipse id="Oval-Copy-5" stroke="#755403" stroke-width="106.1424" fill="#755403" cx="715.8375" cy="1246.48548" rx="191.479167" ry="191.540323"></ellipse>
                <ellipse id="Oval-Copy-6" stroke="#755403" stroke-width="106.1424" fill="#755403" cx="1817.57917" cy="1246.48548" rx="191.479167" ry="191.540323"></ellipse>
                <path d="M2533.41667,1249.43226 C2533.41667,1516.60645 2462.71667,1764.13548 2321.31667,1992.01935 C2179.91667,2219.90323 1924.61111,2392.78065 1555.4,2510.65161" id="Path-11-Copy" stroke="#755403" stroke-width="75.816" stroke-linecap="round" stroke-linejoin="round"></path>
                <polyline id="Path-12-Copy" stroke="#755403" stroke-width="75.816" stroke-linecap="round" stroke-linejoin="round" points="1776.3375 2115.78387 1543.61667 2522.43871 2009.05833 2628.52258"></polyline>
                <ellipse id="Oval" fill="#FFCE1F" cx="877.858333" cy="1249.43226" rx="100.158333" ry="100.190323"></ellipse>
                <ellipse id="Oval-Copy-7" fill="#FFCE1F" cx="1985.49167" cy="1243.53871" rx="100.158333" ry="100.190323"></ellipse>
            </g>
        </g>
    </g>
</svg>